<svg id="Livello_1" data-name="Livello 1" xmlns="http://www.w3.org/2000/svg" viewBox="0 0 480.04 481.63"><defs><style>.cls-1{fill:#3fa9f5;}.cls-2{fill:#0071bc;}</style></defs><path class="cls-1" d="M253,227H399.1l-53.89,107s-74.5,46.2-179.07,39.67-88.53-84.37-82-103.38,59.41-149.73,212.63-159c148.61-8.51,116.15,71.68,116.64,83.28l-79.59,11s12.34-63-90.45-30.35c-96.25,43.38-92.28,131.33-63.67,138.15,0,0,37.07,19.51,105.62-11.19l9.8-20.39H225.61Z" transform="translate(-11.28 -9.18)"/><path d="M298.13,109.83" transform="translate(-11.28 -9.18)"/><path class="cls-2" d="M468.46,333.26A562.89,562.89,0,0,0,381.57,198.9a16.89,16.89,0,0,1-2.31.23c-.38.06-.77.12-1.18.15a11.37,11.37,0,0,1-1.7.3A508.23,508.23,0,0,1,453,319c16,34.81,61.09,171.78-70.08,136.2s-235-172.86-253.58-188.93S39.74,144.37,42.14,84.07s67.23-61.59,93-54c37.24,11,136,75,136,75,3.53,2.46,7,4.94,10.34,7.43a15,15,0,0,1,1.8-.11h.07l.3,0a13.92,13.92,0,0,1,2.57-.3c.41-.06.84-.1,1.27-.12.16,0,.31-.07.48-.09-7.06-5.35-14.3-10.66-21.85-15.89,0,0-109.89-71-151.3-83.2C86.15,4.36,14,5.79,11.34,72.67s76.4,184.27,97,202.1S244.57,444.87,390.5,484.33,486.21,371.88,468.46,333.26Z" transform="translate(-11.28 -9.18)"/><path class="cls-1" d="M443.69,320.38" transform="translate(-11.28 -9.18)"/></svg>